<?xml version="1.0" encoding="utf-8"?>
<!-- Generator: Adobe Illustrator 23.0.4, SVG Export Plug-In . SVG Version: 6.00 Build 0)  -->
<svg version="1.1" id="图层_1" xmlns="http://www.w3.org/2000/svg" xmlns:xlink="http://www.w3.org/1999/xlink" x="0px" y="0px"
	 viewBox="0 0 32 32" style="enable-background:new 0 0 32 32;" xml:space="preserve">
<style type="text/css">
	.st0{fill-rule:evenodd;clip-rule:evenodd;fill:#FFFFFF;fill-opacity:0.702;}
</style>
<path class="st0" d="M27.9,16.4c0,0.1-0.1,0.3-0.2,0.4l-5.9,5.9c-0.4,0.4-1.1,0.4-1.5,0c-0.4-0.4-0.4-1.1,0-1.5l4.2-4.2H12
	c-0.6,0-1-0.4-1-1s0.4-1,1-1h12.6l-4.1-4.1c-0.4-0.4-0.4-1,0-1.4c0.4-0.4,1-0.4,1.4,0l5.7,5.7c0,0,0,0.1,0.1,0.1
	c0.2,0.2,0.4,0.5,0.4,0.8C28,16.1,28,16.3,27.9,16.4z M18,8.1V3c0-0.6-0.4-1-1-1H7C6.4,2,6,2.4,6,3v26c0,0.6,0.4,1,1,1h10
	c0.6,0,1-0.4,1-1v-5.1c0.3,0.1,0.7,0.1,1,0.1c0.3,0,0.7-0.1,1-0.1V29c0,1.7-1.3,3-3,3H7c-1.7,0-3-1.3-3-3V3c0-1.7,1.3-3,3-3h10
	c1.7,0,3,1.3,3,3v5.1C19.7,8.1,19.3,8,19,8C18.7,8,18.3,8.1,18,8.1z"/>
</svg>
