<?xml version="1.0" encoding="utf-8"?>
<!-- Generator: Adobe Illustrator 23.0.0, SVG Export Plug-In . SVG Version: 6.00 Build 0)  -->
<svg version="1.1" id="图层_1" xmlns="http://www.w3.org/2000/svg" xmlns:xlink="http://www.w3.org/1999/xlink" x="0px" y="0px"
	 viewBox="0 0 24 24" style="enable-background:new 0 0 24 24;" xml:space="preserve">
<style type="text/css">
	.st0{fill:#231815;}
</style>
<g>
	<path class="st0" d="M23,22H2V1c0-0.6-0.4-1-1-1S0,0.4,0,1v22c0,0.6,0.4,1,1,1h22c0.6,0,1-0.4,1-1S23.6,22,23,22z"/>
	<path class="st0" d="M4.7,17.6l6.4-6.4l3.5,3.5c0.4,0.4,1,0.4,1.4,0c0,0,0,0,0,0l7.1-7.1c0.4-0.4,0.4-1,0-1.4c-0.4-0.4-1-0.4-1.4,0
		l-6.4,6.4l-3.5-3.5c-0.3-0.3-0.7-0.4-1.1-0.2c-0.1,0-0.2,0.1-0.3,0.2l-7.1,7.1c-0.4,0.4-0.4,1,0,1.4C3.7,18,4.3,18,4.7,17.6z"/>
</g>
</svg>
