<?xml version="1.0" encoding="utf-8"?>
<!-- Generator: Adobe Illustrator 23.0.0, SVG Export Plug-In . SVG Version: 6.00 Build 0)  -->
<svg version="1.1" id="图层_1" xmlns="http://www.w3.org/2000/svg" xmlns:xlink="http://www.w3.org/1999/xlink" x="0px" y="0px"
	 viewBox="0 0 24 24" style="enable-background:new 0 0 24 24;" xml:space="preserve">
<g>
	<path d="M21.5,2.5c-0.2-0.2-0.5-0.3-0.7-0.3s-0.5,0.1-0.7,0.3l-2.9,2.9c-1-0.7-2.2-1.1-3.5-1.1c-1.5,0-3.1,0.6-4.2,1.8l-7.1,7.1
		l-0.7-0.7c-0.2-0.2-0.5-0.3-0.7-0.3s-0.5,0.1-0.7,0.3c-0.4,0.4-0.4,1,0,1.4L1,14.5L9.5,23l0.7,0.7c0.2,0.2,0.5,0.3,0.7,0.3
		s0.5-0.1,0.7-0.3c0.4-0.4,0.4-1,0-1.4l-0.7-0.7l7.1-7.1c2.1-2.1,2.3-5.4,0.6-7.7l2.9-2.9C21.9,3.5,21.9,2.9,21.5,2.5z M16.6,13.1
		l-0.7,0.7l-1.3-1.3c-0.2-0.2-0.5-0.3-0.7-0.3s-0.5,0.1-0.7,0.3c-0.4,0.4-0.4,1,0,1.4l1.3,1.3L13,16.6l-1.3-1.3
		C11.5,15.1,11.2,15,11,15s-0.5,0.1-0.7,0.3c-0.4,0.4-0.4,1,0,1.4l1.3,1.3l-2.1,2.1l-5.7-5.7l7.1-7.1c0.8-0.8,1.8-1.2,2.8-1.2
		c1.1,0,2.1,0.4,2.8,1.2C18.1,9,18.1,11.5,16.6,13.1z"/>
	<path d="M2.1,17.4c-0.3,0-0.5,0.1-0.7,0.3c-0.4,0.4-0.4,1,0,1.4l3.5,3.5c0.2,0.2,0.5,0.3,0.7,0.3s0.5-0.1,0.7-0.3
		c0.4-0.4,0.4-1,0-1.4l-3.5-3.5C2.6,17.5,2.3,17.4,2.1,17.4L2.1,17.4z"/>
</g>
<path d="M23.8,6.3L23.8,6.3l-1-1.8l-1.1,1.8l0,0c-0.1,0.2-0.2,0.4-0.2,0.6c0,0.7,0.5,1.2,1.2,1.2S24,7.6,24,6.9
	C24,6.7,23.9,6.5,23.8,6.3z"/>
</svg>
