<?xml version="1.0" encoding="utf-8"?>
<!-- Generator: Adobe Illustrator 23.0.0, SVG Export Plug-In . SVG Version: 6.00 Build 0)  -->
<svg version="1.1" id="图层_1" xmlns="http://www.w3.org/2000/svg" xmlns:xlink="http://www.w3.org/1999/xlink" x="0px" y="0px"
	 viewBox="0 0 24 24" style="enable-background:new 0 0 24 24;" xml:space="preserve">
<image style="overflow:visible;" width="244" height="236" xlink:href="DF8406A5.jpg"  transform="matrix(1 0 0 1 -473.821 -81.2737)">
</image>
<g>
	<path d="M21.3,4H13V1c0-0.6-0.4-1-1-1s-1,0.4-1,1v3H2.7C1.2,4,0,5.2,0,6.7v11.5C0,19.8,1.2,21,2.7,21h5.6l-1.3,1.3
		c-0.4,0.4-0.4,1,0,1.4s1,0.4,1.4,0l2.7-2.7h1.7l2.7,2.7c0.4,0.4,1,0.4,1.4,0c0.4-0.4,0.4-1,0-1.4L15.7,21h5.6
		c1.5,0,2.7-1.2,2.7-2.7V6.7C24,5.2,22.8,4,21.3,4z M22,17.2c0,1-0.8,1.8-1.8,1.8H3.8c-1,0-1.8-0.8-1.8-1.8V7.8C2,6.8,2.8,6,3.8,6
		h16.5c1,0,1.8,0.8,1.8,1.8V17.2z"/>
	<path d="M17.7,9.4l-5,5l-3.6-3.6c-0.2-0.2-0.5-0.3-0.7-0.3c-0.3,0-0.5,0.1-0.7,0.3l-2.8,2.8c-0.4,0.4-0.4,1,0,1.4s1,0.4,1.4,0
		L8.4,13l3.5,3.5c0.2,0.2,0.5,0.3,0.7,0.3c0.3,0,0.5-0.1,0.7-0.3l5.7-5.7c0.4-0.4,0.4-1,0-1.4C18.7,9,18.1,9,17.7,9.4z"/>
</g>
</svg>
