<?xml version="1.0" encoding="utf-8"?>
<!-- Generator: Adobe Illustrator 23.0.0, SVG Export Plug-In . SVG Version: 6.00 Build 0)  -->
<svg version="1.1" id="图层_1" xmlns="http://www.w3.org/2000/svg" xmlns:xlink="http://www.w3.org/1999/xlink" x="0px" y="0px"
	 viewBox="0 0 24 24" style="enable-background:new 0 0 24 24;" xml:space="preserve">
<circle cx="18.6" cy="5.1" r="4"/>
<circle cx="15.7" cy="19.3" r="4"/>
<circle cx="5" cy="7.3" r="4"/>
<g>
	<path d="M22.1,8.7c-0.4,0.4-0.8,0.6-1.2,0.9c0.3,2.1-0.2,4.4-1.7,6.2c0,0,0,0,0.1,0c0.5,0.5,0.9,1.1,1.1,1.7
		c2.4-2.6,3.1-6.2,2.2-9.4C22.5,8.3,22.3,8.5,22.1,8.7z"/>
	<path d="M8.6,3.8C8.6,3.8,8.7,3.9,8.7,4c1.6-1,3.6-1.4,5.5-1.2C14.4,2.4,14.7,2,15,1.6c0.2-0.2,0.4-0.4,0.6-0.5
		C12.7,0.3,9.5,0.8,7,2.7C7.6,3,8.1,3.3,8.6,3.8z"/>
	<path d="M10.8,18.4c-1.3-0.4-2.5-1-3.5-2c-1.2-1.2-1.9-2.6-2.2-4.1c-0.7,0-1.4-0.1-2.1-0.4c0.3,2.1,1.2,4.2,2.8,5.9
		c1.4,1.4,3.2,2.3,5,2.7C10.7,19.8,10.7,19.1,10.8,18.4z"/>
</g>
</svg>
