<?xml version="1.0" encoding="utf-8"?>
<!-- Generator: Adobe Illustrator 23.0.0, SVG Export Plug-In . SVG Version: 6.00 Build 0)  -->
<svg version="1.1" id="图层_1" xmlns="http://www.w3.org/2000/svg" xmlns:xlink="http://www.w3.org/1999/xlink" x="0px" y="0px"
	 viewBox="0 0 24 24" style="enable-background:new 0 0 24 24;" xml:space="preserve">
<g>
	<path d="M22.3,6H19V1.7c0-1-0.8-1.7-1.7-1.7H6.7C5.8,0,5,0.8,5,1.7V6H1.7C0.8,6,0,6.8,0,7.7v14.5c0,1,0.8,1.7,1.7,1.7h20.5
		c1,0,1.7-0.8,1.7-1.7V7.7C24,6.8,23.2,6,22.3,6z M7,5.2V2.8C7,2.4,7.4,2,7.8,2h8.4C16.6,2,17,2.4,17,2.8v2.4C17,5.6,16.6,6,16.2,6
		H7.8C7.4,6,7,5.6,7,5.2z M22,21.2c0,0.4-0.4,0.8-0.8,0.8H2.8C2.4,22,2,21.6,2,21.2V8.8C2,8.4,2.4,8,2.8,8h3.9h10.5h3.9
		C21.6,8,22,8.4,22,8.8V21.2z"/>
	<path d="M16,14h-3v-3c0-0.6-0.4-1-1-1s-1,0.4-1,1v3H8c-0.6,0-1,0.4-1,1s0.4,1,1,1h3v3c0,0.6,0.4,1,1,1s1-0.4,1-1v-3h3
		c0.6,0,1-0.4,1-1S16.6,14,16,14z"/>
</g>
</svg>
