<?xml version="1.0" encoding="utf-8"?>
<!-- Generator: Adobe Illustrator 23.0.0, SVG Export Plug-In . SVG Version: 6.00 Build 0)  -->
<svg version="1.1" id="图层_1" xmlns="http://www.w3.org/2000/svg" xmlns:xlink="http://www.w3.org/1999/xlink" x="0px" y="0px"
	 viewBox="0 0 24 24" style="enable-background:new 0 0 24 24;" xml:space="preserve">
<path d="M12.1,2L12.1,2l10,7.3c0.3,0.2,0.7,0.2,1,0l0,0c0.5-0.3,0.5-1.1,0-1.4L12.7,0.2c-0.3-0.2-0.8-0.2-1.1,0L1,8
	C0.5,8.3,0.5,9,1,9.4l0,0c0.3,0.2,0.7,0.2,1,0L12.1,2z"/>
<g>
	<path d="M17.2,7H6.8C6.3,7,6,7.3,6,7.8v8.4C6,16.7,6.3,17,6.8,17h10.4c0.4,0,0.8-0.3,0.8-0.8V7.8C18,7.3,17.7,7,17.2,7z M16,14.2
		c0,0.4-0.3,0.8-0.8,0.8H12H8.8C8.3,15,8,14.7,8,14.2V9.8C8,9.3,8.3,9,8.8,9H12h3.2C15.7,9,16,9.3,16,9.8V14.2z"/>
	<path d="M13,14v-1h1c0.6,0,1-0.4,1-1s-0.4-1-1-1h-1v-1c0-0.6-0.4-1-1-1s-1,0.4-1,1v1h-1c-0.6,0-1,0.4-1,1s0.4,1,1,1h1v1
		c0,0.6,0.4,1,1,1S13,14.6,13,14z"/>
</g>
<path d="M11,15.6v3.2c0,1.3-1.1,2.4-2.4,2.4H4.7v2h4.5c2.1,0,3.8-1.7,3.8-3.8v-3.8H11z"/>
<circle cx="4.7" cy="22" r="2"/>
</svg>
