<?xml version="1.0" encoding="utf-8"?>
<!-- Generator: Adobe Illustrator 23.0.0, SVG Export Plug-In . SVG Version: 6.00 Build 0)  -->
<svg version="1.1" id="图层_1" xmlns="http://www.w3.org/2000/svg" xmlns:xlink="http://www.w3.org/1999/xlink" x="0px" y="0px"
	 viewBox="0 0 24 24" style="enable-background:new 0 0 24 24;" xml:space="preserve">
<g>
	<path d="M3,12.2C3,12.2,3,12.2,3,12.2c0.1-0.3,0.1-0.6,0-0.8C1.6,8.1,1.5,5,3.3,3.3C6,0.6,12,2.1,16.7,6.8c0.3,0.3,0.5,0.6,0.8,0.9
		l1.4-1.4c-0.3-0.3-0.5-0.6-0.8-0.9C12.7-0.1,5.4-1.6,1.9,1.9c-2.3,2.3-2.4,6.3-0.6,10.3C1.6,12.9,2.7,13,3,12.2z"/>
</g>
<g>
	<path d="M20.9,11.8C20.9,11.8,20.9,11.8,20.9,11.8c-0.1,0.3-0.1,0.6,0,0.8c1.5,3.2,1.5,6.3-0.2,8.1C18,23.3,12.4,22,7.9,17.8
		c-0.4-0.4-1-0.4-1.4,0l0,0c-0.4,0.4-0.4,1.1,0,1.4c5.4,4.9,12.2,6.2,15.5,2.8c2.3-2.3,2.4-6.3,0.6-10.3C22.3,11,21.2,11,20.9,11.8z
		"/>
</g>
<g>
	<path d="M6.8,6.8c4.7-4.7,10.7-6.3,13.4-3.5c2.6,2.6,1.3,8-2.7,12.6c-0.4,0.4-0.4,1,0.1,1.4l0,0c0.4,0.4,1,0.3,1.4-0.1
		c4.7-5.3,6-12,2.7-15.3C18.2-1.6,10.9-0.1,5.4,5.4C5.2,5.6,4.9,5.9,4.7,6.1l1.4,1.4C6.4,7.3,6.6,7.1,6.8,6.8z"/>
	<path d="M11.5,20.4C8.2,22,5.1,22,3.3,20.3c-1.7-1.7-1.7-4.8-0.2-8.1c0.1-0.1,0.1-0.3,0-0.5l-0.6-2L2.2,9.5
		c-2.7,4.6-3,9.5-0.3,12.1c2.6,2.6,7.4,2.4,11.9-0.2C13,21.2,11.9,20.6,11.5,20.4z"/>
</g>
<image style="overflow:visible;" width="244" height="236" xlink:href="E81686AC.jpg"  transform="matrix(1 0 0 1 -473.821 -81.2737)">
</image>
<circle cx="18" cy="6.8" r="2"/>
<circle cx="10.8" cy="21.4" r="2"/>
<circle cx="5.3" cy="6.7" r="2"/>
<path d="M12,7c-2.8,0-5,2.2-5,5s2.2,5,5,5s5-2.2,5-5S14.8,7,12,7z M12,15c-1.7,0-3-1.3-3-3s1.3-3,3-3s3,1.3,3,3S13.7,15,12,15z"/>
</svg>
