<?xml version="1.0" encoding="utf-8"?>
<!-- Generator: Adobe Illustrator 23.0.0, SVG Export Plug-In . SVG Version: 6.00 Build 0)  -->
<svg version="1.1" id="图层_1" xmlns="http://www.w3.org/2000/svg" xmlns:xlink="http://www.w3.org/1999/xlink" x="0px" y="0px"
	 viewBox="0 0 24 24" style="enable-background:new 0 0 24 24;" xml:space="preserve">
<path d="M23.3,10.3l-2.7-0.9c-0.2-0.6-0.4-1.1-0.7-1.6l1.3-2.5c0.2-0.4,0.1-0.9-0.2-1.2L19.9,3c-0.3-0.3-0.8-0.4-1.2-0.2l-2.5,1.3
	c-0.5-0.3-1-0.5-1.6-0.7l-0.9-2.7c-0.1-0.4-0.5-0.7-1-0.7h-1.5c-0.4,0-0.8,0.3-1,0.7L9.4,3.4C8.8,3.6,8.3,3.8,7.8,4.1L5.2,2.8
	C4.8,2.6,4.4,2.7,4.1,3L3,4.1C2.7,4.4,2.6,4.8,2.8,5.2l1.3,2.5c-0.3,0.5-0.5,1-0.7,1.6l-2.7,0.9c-0.4,0.1-0.7,0.5-0.7,1v1.5
	c0,0.4,0.3,0.8,0.7,1l2.7,0.9c0.2,0.6,0.4,1.1,0.7,1.6l-1.3,2.5c-0.2,0.4-0.1,0.9,0.2,1.2L4.1,21c0.3,0.3,0.8,0.4,1.2,0.2l2.5-1.3
	c0.5,0.3,1,0.5,1.6,0.7l0.9,2.7c0.1,0.4,0.5,0.7,1,0.7h1.5c0.4,0,0.8-0.3,1-0.7l0.9-2.7c0.6-0.2,1.1-0.4,1.6-0.7l2.5,1.3
	c0.4,0.2,0.9,0.1,1.2-0.2l1.1-1.1c0.3-0.3,0.4-0.8,0.2-1.2l-1.3-2.5c0.3-0.5,0.5-1,0.7-1.6l2.7-0.9c0.4-0.1,0.7-0.5,0.7-1v-1.5
	C24,10.8,23.7,10.4,23.3,10.3z M12,18c-3.3,0-6-2.7-6-6s2.7-6,6-6s6,2.7,6,6S15.3,18,12,18z"/>
</svg>
