<?xml version="1.0" encoding="utf-8"?>
<!-- Generator: Adobe Illustrator 23.0.4, SVG Export Plug-In . SVG Version: 6.00 Build 0)  -->
<svg version="1.1" id="图层_1" xmlns="http://www.w3.org/2000/svg" xmlns:xlink="http://www.w3.org/1999/xlink" x="0px" y="0px"
	 viewBox="0 0 32 32" style="enable-background:new 0 0 32 32;" xml:space="preserve">
<style type="text/css">
	.st0{fill-rule:evenodd;clip-rule:evenodd;fill:#FFFFFF;fill-opacity:0.702;}
</style>
<path class="st0" d="M30,25.5h-7.8l-2.4-2H29c0.6,0,1-0.4,1-1v-18c0-0.6-0.4-1-1-1H3c-0.6,0-1,0.4-1,1v18c0,0.6,0.4,1,1,1h10l-2.4,2
	H2c-1.1,0-2-0.9-2-2v-20c0-1.1,0.9-2,2-2h28c1.1,0,2,0.9,2,2v20C32,24.6,31.1,25.5,30,25.5z M24,30.5H9l7.4-8L24,30.5z M19,28.5
	l-2.6-3.2L14,28.5H19z"/>
</svg>
