<?xml version="1.0" encoding="utf-8"?>
<!-- Generator: Adobe Illustrator 23.0.4, SVG Export Plug-In . SVG Version: 6.00 Build 0)  -->
<svg version="1.1" id="图层_1" xmlns="http://www.w3.org/2000/svg" xmlns:xlink="http://www.w3.org/1999/xlink" x="0px" y="0px"
	 viewBox="0 0 22 22" style="enable-background:new 0 0 22 22;" xml:space="preserve">
<style type="text/css">
	.st0{fill-rule:evenodd;clip-rule:evenodd;fill:#FFFFFF;}
</style>
<path class="st0" d="M13.2,14.3L12.3,15c0,0-0.9,0.4-1.9-0.5c-1-0.9-2.9-3-3.4-4.3C6.5,9,7.5,8.4,7.5,8.4s1.4-1.1,1.4-1.3
	c0.1-0.2,0.8-1-0.8-3.2c-1.6-2.2-2-1.7-2.9-1.1c-0.9,0.7-2.1,2-2.3,3.5C2.7,7.8,2.5,9.7,4.7,13c2.2,3.3,5.5,5.8,7.4,6.2
	c1.9,0.4,3.2,0.7,5-0.8c1.9-1.5,2.2-1.6,1.3-2.7c-0.8-1.1-2.7-2.4-3-2.4c-0.3-0.1-0.7-0.1-1.3,0.3C13.5,14,13.2,14.3,13.2,14.3
	L13.2,14.3z"/>
</svg>
