<?xml version="1.0" encoding="utf-8"?>
<!-- Generator: Adobe Illustrator 23.0.4, SVG Export Plug-In . SVG Version: 6.00 Build 0)  -->
<svg version="1.1" id="图层_1" xmlns="http://www.w3.org/2000/svg" xmlns:xlink="http://www.w3.org/1999/xlink" x="0px" y="0px"
	 viewBox="0 0 18 18" style="enable-background:new 0 0 18 18;" xml:space="preserve">
<style type="text/css">
	.st0{clip-path:url(#SVGID_2_);fill:#1F80C4;}
	.st1{clip-path:url(#SVGID_2_);fill:#D74115;}
	.st2{clip-path:url(#SVGID_2_);fill:#138849;}
	.st3{fill:#EEE92E;}
	.st4{clip-path:url(#SVGID_4_);fill:#1F80C4;}
	.st5{clip-path:url(#SVGID_4_);fill:#D74115;}
	.st6{clip-path:url(#SVGID_4_);fill:#138849;}
</style>
<g>
	<g>
		<defs>
			<rect id="SVGID_1_" width="18" height="18"/>
		</defs>
		<clipPath id="SVGID_2_">
			<use xlink:href="#SVGID_1_"  style="overflow:visible;"/>
		</clipPath>
		<path class="st0" d="M6.4,9c0,1.4,1.2,2.6,2.6,2.6c1.4,0,2.6-1.2,2.6-2.6c0-1.4-1.2-2.6-2.6-2.6h0C7.5,6.4,6.4,7.6,6.4,9L6.4,9z
			 M6.4,9"/>
		<path class="st1" d="M8.9,5.1h8.2C15.6,2,12.4,0,9,0C6.5,0,4.1,1,2.4,2.8l2.8,4.9C5.8,6.1,7.3,5.1,8.9,5.1L8.9,5.1z M8.9,5.1"/>
		<path class="st2" d="M9.7,12.9C9.5,12.9,9.2,13,8.9,13c-1.3,0-2.6-0.7-3.3-1.8L1.5,4C0.5,5.5,0,7.2,0,9c0,4.3,3,7.9,7.2,8.8
			L7,17.6L9.7,12.9z M9.7,12.9"/>
	</g>
	<path class="st3" d="M17.6,6.4h-5.7c0.6,0.7,1,1.6,1,2.6c0,0.7-0.2,1.5-0.6,2.1l-4,6.8c0.2,0,0.4,0,0.6,0c4.9,0,9-4,9-8.9V9
		C18,8.1,17.8,7.3,17.6,6.4L17.6,6.4z M17.6,6.4"/>
	<g>
		<defs>
			<rect id="SVGID_3_" width="18" height="18"/>
		</defs>
		<clipPath id="SVGID_4_">
			<use xlink:href="#SVGID_3_"  style="overflow:visible;"/>
		</clipPath>
		<path class="st4" d="M6.4,9c0,1.4,1.2,2.6,2.6,2.6c1.4,0,2.6-1.2,2.6-2.6c0-1.4-1.2-2.6-2.6-2.6h0C7.5,6.4,6.4,7.6,6.4,9L6.4,9z
			 M6.4,9"/>
		<path class="st5" d="M8.9,5.1h8.2C15.6,2,12.4,0,9,0C6.5,0,4.1,1,2.4,2.8l2.8,4.9C5.8,6.1,7.3,5.1,8.9,5.1L8.9,5.1z M8.9,5.1"/>
		<path class="st6" d="M9.7,12.9C9.5,12.9,9.2,13,8.9,13c-1.3,0-2.6-0.7-3.3-1.8L1.5,4C0.5,5.5,0,7.2,0,9c0,4.3,3,7.9,7.2,8.8
			L7,17.6L9.7,12.9z M9.7,12.9"/>
	</g>
	<path class="st3" d="M17.6,6.4h-5.7c0.6,0.7,1,1.6,1,2.6c0,0.7-0.2,1.5-0.6,2.1l-4,6.8c0.2,0,0.4,0,0.6,0c4.9,0,9-4,9-8.9V9
		C18,8.1,17.8,7.3,17.6,6.4L17.6,6.4z M17.6,6.4"/>
</g>
</svg>
